<svg xmlns="http://www.w3.org/2000/svg" width="36px" viewBox="0 0 937.5 937.5" height="36px" version="1.0"><defs><clipPath id="a"><path d="M 127 125 L 813.914062 125 L 813.914062 812 L 127 812 Z M 127 125"/></clipPath></defs><g clip-path="url(#a)"><path fill="#01ADEB" d="M 470.628906 125.203125 C 281.050781 125.203125 127.347656 266.085938 127.347656 439.878906 C 127.347656 508.074219 151.257812 571.015625 191.523438 622.585938 L 129.527344 772.207031 C 123.492188 786.820312 130.417969 803.519531 145.007812 809.582031 C 152.328125 812.601562 160.148438 812.402344 166.910156 809.582031 L 349.453125 733.980469 C 387.152344 747.058594 427.890625 754.550781 470.628906 754.550781 C 660.269531 754.550781 813.914062 613.609375 813.914062 439.871094 C 813.914062 266.085938 660.269531 125.203125 470.628906 125.203125 Z M 470.628906 697.335938 C 435.992188 697.335938 401.511719 691.464844 368.160156 679.929688 L 347.65625 672.808594 L 208.808594 730.296875 L 257.140625 613.667969 L 236.632812 587.382812 C 202.542969 543.742188 184.5625 492.738281 184.5625 439.878906 C 184.5625 297.90625 312.898438 182.417969 470.628906 182.417969 C 628.359375 182.417969 756.695312 297.90625 756.695312 439.878906 C 756.695312 581.820312 628.359375 697.335938 470.628906 697.335938 Z M 470.628906 697.335938"/></g><path fill="#01ADEB" d="M 513.539062 439.878906 C 513.539062 441.285156 513.472656 442.6875 513.335938 444.085938 C 513.195312 445.484375 512.992188 446.875 512.714844 448.253906 C 512.441406 449.628906 512.101562 450.992188 511.691406 452.335938 C 511.285156 453.683594 510.8125 455.003906 510.273438 456.300781 C 509.738281 457.601562 509.136719 458.871094 508.472656 460.109375 C 507.8125 461.347656 507.089844 462.550781 506.308594 463.71875 C 505.527344 464.890625 504.691406 466.015625 503.800781 467.101562 C 502.910156 468.1875 501.964844 469.230469 500.972656 470.222656 C 499.980469 471.21875 498.9375 472.160156 497.851562 473.050781 C 496.765625 473.941406 495.636719 474.777344 494.46875 475.558594 C 493.300781 476.339844 492.097656 477.0625 490.859375 477.722656 C 489.617188 478.386719 488.351562 478.988281 487.050781 479.523438 C 485.753906 480.0625 484.429688 480.535156 483.085938 480.945312 C 481.742188 481.351562 480.378906 481.691406 479 481.964844 C 477.625 482.242188 476.234375 482.445312 474.835938 482.585938 C 473.4375 482.722656 472.035156 482.792969 470.628906 482.792969 C 469.226562 482.792969 467.824219 482.722656 466.425781 482.585938 C 465.027344 482.445312 463.636719 482.242188 462.257812 481.964844 C 460.878906 481.691406 459.519531 481.351562 458.175781 480.945312 C 456.828125 480.535156 455.507812 480.0625 454.210938 479.523438 C 452.910156 478.988281 451.640625 478.386719 450.402344 477.722656 C 449.164062 477.0625 447.960938 476.339844 446.789062 475.558594 C 445.621094 474.777344 444.496094 473.941406 443.410156 473.050781 C 442.320312 472.160156 441.28125 471.21875 440.289062 470.222656 C 439.292969 469.230469 438.351562 468.1875 437.460938 467.101562 C 436.570312 466.015625 435.734375 464.890625 434.953125 463.71875 C 434.171875 462.550781 433.449219 461.347656 432.785156 460.109375 C 432.125 458.871094 431.523438 457.601562 430.988281 456.300781 C 430.449219 455.003906 429.976562 453.683594 429.566406 452.335938 C 429.160156 450.992188 428.820312 449.628906 428.542969 448.253906 C 428.269531 446.875 428.0625 445.484375 427.925781 444.085938 C 427.789062 442.6875 427.71875 441.285156 427.71875 439.878906 C 427.71875 438.476562 427.789062 437.074219 427.925781 435.675781 C 428.0625 434.277344 428.269531 432.886719 428.542969 431.507812 C 428.820312 430.132812 429.160156 428.769531 429.566406 427.425781 C 429.976562 426.078125 430.449219 424.757812 430.988281 423.460938 C 431.523438 422.160156 432.125 420.890625 432.785156 419.652344 C 433.449219 418.414062 434.171875 417.210938 434.953125 416.042969 C 435.734375 414.871094 436.570312 413.746094 437.460938 412.660156 C 438.351562 411.574219 439.292969 410.53125 440.289062 409.539062 C 441.28125 408.542969 442.320312 407.601562 443.410156 406.710938 C 444.496094 405.820312 445.621094 404.984375 446.789062 404.203125 C 447.960938 403.421875 449.164062 402.699219 450.402344 402.039062 C 451.640625 401.375 452.910156 400.773438 454.210938 400.238281 C 455.507812 399.699219 456.828125 399.226562 458.175781 398.816406 C 459.519531 398.410156 460.878906 398.070312 462.257812 397.792969 C 463.636719 397.519531 465.027344 397.316406 466.425781 397.175781 C 467.824219 397.039062 469.226562 396.96875 470.628906 396.96875 C 472.035156 396.96875 473.4375 397.039062 474.835938 397.175781 C 476.234375 397.316406 477.625 397.519531 479 397.792969 C 480.378906 398.070312 481.742188 398.410156 483.085938 398.816406 C 484.429688 399.226562 485.753906 399.699219 487.050781 400.238281 C 488.351562 400.773438 489.617188 401.375 490.859375 402.039062 C 492.097656 402.699219 493.300781 403.421875 494.46875 404.203125 C 495.640625 404.984375 496.765625 405.820312 497.851562 406.710938 C 498.9375 407.601562 499.980469 408.542969 500.972656 409.539062 C 501.964844 410.53125 502.910156 411.574219 503.800781 412.660156 C 504.691406 413.746094 505.527344 414.871094 506.308594 416.042969 C 507.089844 417.210938 507.8125 418.414062 508.472656 419.652344 C 509.136719 420.890625 509.738281 422.160156 510.273438 423.460938 C 510.8125 424.757812 511.285156 426.078125 511.691406 427.425781 C 512.101562 428.769531 512.441406 430.132812 512.714844 431.507812 C 512.992188 432.886719 513.195312 434.277344 513.335938 435.675781 C 513.472656 437.074219 513.539062 438.476562 513.539062 439.878906 Z M 513.539062 439.878906"/><path fill="#01ADEB" d="M 370.503906 439.878906 C 370.503906 441.285156 370.433594 442.6875 370.296875 444.085938 C 370.160156 445.484375 369.953125 446.875 369.679688 448.253906 C 369.40625 449.628906 369.0625 450.992188 368.65625 452.335938 C 368.246094 453.683594 367.773438 455.003906 367.238281 456.300781 C 366.699219 457.601562 366.097656 458.871094 365.4375 460.109375 C 364.773438 461.347656 364.050781 462.550781 363.269531 463.71875 C 362.492188 464.890625 361.65625 466.015625 360.761719 467.101562 C 359.871094 468.1875 358.929688 469.230469 357.933594 470.222656 C 356.941406 471.21875 355.902344 472.160156 354.816406 473.050781 C 353.730469 473.941406 352.601562 474.777344 351.433594 475.558594 C 350.265625 476.339844 349.058594 477.0625 347.820312 477.722656 C 346.582031 478.386719 345.3125 478.988281 344.015625 479.523438 C 342.714844 480.0625 341.394531 480.535156 340.050781 480.945312 C 338.703125 481.351562 337.34375 481.691406 335.964844 481.964844 C 334.585938 482.242188 333.199219 482.445312 331.796875 482.585938 C 330.398438 482.722656 329 482.792969 327.59375 482.792969 C 326.1875 482.792969 324.785156 482.722656 323.386719 482.585938 C 321.988281 482.445312 320.601562 482.242188 319.222656 481.964844 C 317.84375 481.691406 316.480469 481.351562 315.136719 480.945312 C 313.792969 480.535156 312.46875 480.0625 311.171875 479.523438 C 309.875 478.988281 308.605469 478.386719 307.363281 477.722656 C 306.125 477.0625 304.921875 476.339844 303.753906 475.558594 C 302.585938 474.777344 301.457031 473.941406 300.371094 473.050781 C 299.285156 472.160156 298.246094 471.21875 297.25 470.222656 C 296.257812 469.230469 295.3125 468.1875 294.421875 467.101562 C 293.53125 466.015625 292.695312 464.890625 291.914062 463.71875 C 291.132812 462.550781 290.410156 461.347656 289.75 460.109375 C 289.085938 458.871094 288.488281 457.601562 287.949219 456.300781 C 287.410156 455.003906 286.9375 453.683594 286.53125 452.335938 C 286.121094 450.992188 285.78125 449.628906 285.507812 448.253906 C 285.234375 446.875 285.027344 445.484375 284.890625 444.085938 C 284.75 442.6875 284.683594 441.285156 284.683594 439.878906 C 284.683594 438.476562 284.75 437.074219 284.890625 435.675781 C 285.027344 434.277344 285.234375 432.886719 285.507812 431.507812 C 285.78125 430.132812 286.121094 428.769531 286.53125 427.425781 C 286.9375 426.078125 287.410156 424.757812 287.949219 423.460938 C 288.488281 422.160156 289.085938 420.890625 289.75 419.652344 C 290.410156 418.414062 291.132812 417.210938 291.914062 416.042969 C 292.695312 414.871094 293.53125 413.746094 294.421875 412.660156 C 295.3125 411.574219 296.257812 410.53125 297.25 409.539062 C 298.246094 408.542969 299.285156 407.601562 300.371094 406.710938 C 301.457031 405.820312 302.585938 404.984375 303.753906 404.203125 C 304.921875 403.421875 306.125 402.699219 307.363281 402.039062 C 308.605469 401.375 309.875 400.773438 311.171875 400.238281 C 312.46875 399.699219 313.792969 399.226562 315.136719 398.816406 C 316.480469 398.410156 317.84375 398.070312 319.222656 397.792969 C 320.601562 397.519531 321.988281 397.316406 323.386719 397.175781 C 324.785156 397.039062 326.1875 396.96875 327.59375 396.96875 C 329 396.96875 330.398438 397.039062 331.796875 397.175781 C 333.199219 397.316406 334.585938 397.519531 335.964844 397.792969 C 337.34375 398.070312 338.703125 398.410156 340.050781 398.816406 C 341.394531 399.226562 342.714844 399.699219 344.015625 400.238281 C 345.3125 400.773438 346.582031 401.375 347.820312 402.039062 C 349.058594 402.699219 350.265625 403.421875 351.433594 404.203125 C 352.601562 404.984375 353.730469 405.820312 354.816406 406.710938 C 355.902344 407.601562 356.941406 408.542969 357.933594 409.539062 C 358.929688 410.53125 359.871094 411.574219 360.761719 412.660156 C 361.65625 413.746094 362.492188 414.871094 363.269531 416.042969 C 364.050781 417.210938 364.773438 418.414062 365.4375 419.652344 C 366.097656 420.890625 366.699219 422.160156 367.238281 423.460938 C 367.773438 424.757812 368.246094 426.078125 368.65625 427.425781 C 369.0625 428.769531 369.40625 430.132812 369.679688 431.507812 C 369.953125 432.886719 370.160156 434.277344 370.296875 435.675781 C 370.433594 437.074219 370.503906 438.476562 370.503906 439.878906 Z M 370.503906 439.878906"/><path fill="#01ADEB" d="M 656.578125 439.878906 C 656.578125 441.285156 656.507812 442.6875 656.371094 444.085938 C 656.234375 445.484375 656.027344 446.875 655.753906 448.253906 C 655.480469 449.628906 655.140625 450.992188 654.730469 452.335938 C 654.324219 453.683594 653.851562 455.003906 653.3125 456.300781 C 652.773438 457.601562 652.175781 458.871094 651.511719 460.109375 C 650.847656 461.347656 650.128906 462.550781 649.347656 463.71875 C 648.566406 464.890625 647.730469 466.015625 646.839844 467.101562 C 645.945312 468.1875 645.003906 469.230469 644.011719 470.222656 C 643.015625 471.21875 641.976562 472.160156 640.890625 473.050781 C 639.804688 473.941406 638.675781 474.777344 637.507812 475.558594 C 636.339844 476.339844 635.136719 477.0625 633.894531 477.722656 C 632.65625 478.386719 631.386719 478.988281 630.089844 479.523438 C 628.789062 480.0625 627.46875 480.535156 626.125 480.945312 C 624.78125 481.351562 623.417969 481.691406 622.039062 481.964844 C 620.660156 482.242188 619.273438 482.445312 617.875 482.585938 C 616.476562 482.722656 615.074219 482.792969 613.667969 482.792969 C 612.261719 482.792969 610.859375 482.722656 609.460938 482.585938 C 608.0625 482.445312 606.675781 482.242188 605.296875 481.964844 C 603.917969 481.691406 602.558594 481.351562 601.210938 480.945312 C 599.867188 480.535156 598.546875 480.0625 597.246094 479.523438 C 595.949219 478.988281 594.679688 478.386719 593.441406 477.722656 C 592.199219 477.0625 590.996094 476.339844 589.828125 475.558594 C 588.660156 474.777344 587.53125 473.941406 586.445312 473.050781 C 585.359375 472.160156 584.320312 471.21875 583.324219 470.222656 C 582.332031 469.230469 581.390625 468.1875 580.496094 467.101562 C 579.605469 466.015625 578.769531 464.890625 577.988281 463.71875 C 577.207031 462.550781 576.488281 461.347656 575.824219 460.109375 C 575.160156 458.871094 574.5625 457.601562 574.023438 456.300781 C 573.484375 455.003906 573.011719 453.683594 572.605469 452.335938 C 572.199219 450.992188 571.855469 449.628906 571.582031 448.253906 C 571.308594 446.875 571.101562 445.484375 570.964844 444.085938 C 570.828125 442.6875 570.757812 441.285156 570.757812 439.878906 C 570.757812 438.476562 570.828125 437.074219 570.964844 435.675781 C 571.101562 434.277344 571.308594 432.886719 571.582031 431.507812 C 571.855469 430.132812 572.199219 428.769531 572.605469 427.425781 C 573.011719 426.078125 573.484375 424.757812 574.023438 423.460938 C 574.5625 422.160156 575.160156 420.890625 575.824219 419.652344 C 576.488281 418.414062 577.207031 417.210938 577.988281 416.042969 C 578.769531 414.871094 579.605469 413.746094 580.496094 412.660156 C 581.390625 411.574219 582.332031 410.53125 583.324219 409.539062 C 584.320312 408.542969 585.359375 407.601562 586.445312 406.710938 C 587.53125 405.820312 588.660156 404.984375 589.828125 404.203125 C 590.996094 403.421875 592.199219 402.699219 593.441406 402.039062 C 594.679688 401.375 595.949219 400.773438 597.246094 400.238281 C 598.546875 399.699219 599.867188 399.226562 601.210938 398.816406 C 602.558594 398.410156 603.917969 398.070312 605.296875 397.792969 C 606.675781 397.519531 608.0625 397.316406 609.460938 397.175781 C 610.859375 397.039062 612.261719 396.96875 613.667969 396.96875 C 615.074219 396.96875 616.476562 397.039062 617.875 397.175781 C 619.273438 397.316406 620.660156 397.519531 622.039062 397.792969 C 623.417969 398.070312 624.78125 398.410156 626.125 398.816406 C 627.46875 399.226562 628.789062 399.699219 630.089844 400.238281 C 631.386719 400.773438 632.65625 401.375 633.894531 402.039062 C 635.136719 402.699219 636.339844 403.421875 637.507812 404.203125 C 638.675781 404.984375 639.804688 405.820312 640.890625 406.710938 C 641.976562 407.601562 643.015625 408.542969 644.011719 409.539062 C 645.003906 410.53125 645.945312 411.574219 646.839844 412.660156 C 647.730469 413.746094 648.566406 414.871094 649.347656 416.042969 C 650.128906 417.210938 650.847656 418.414062 651.511719 419.652344 C 652.175781 420.890625 652.773438 422.160156 653.3125 423.460938 C 653.851562 424.757812 654.324219 426.078125 654.730469 427.425781 C 655.140625 428.769531 655.480469 430.132812 655.753906 431.507812 C 656.027344 432.886719 656.234375 434.277344 656.371094 435.675781 C 656.507812 437.074219 656.578125 438.476562 656.578125 439.878906 Z M 656.578125 439.878906"/></svg>