<?xml version="1.0" standalone="no"?>
<!DOCTYPE svg PUBLIC "-//W3C//DTD SVG 20010904//EN"
 "http://www.w3.org/TR/2001/REC-SVG-20010904/DTD/svg10.dtd">
<svg version="1.0" xmlns="http://www.w3.org/2000/svg"
 width="32" height="32" viewBox="0 0 512.000000 512.000000"
 preserveAspectRatio="xMidYMid meet">

<g transform="translate(0.000000,512.000000) scale(0.100000,-0.100000)"
fill="#000000" stroke="none">
<path d="M1 3888 c1 -738 5 -1190 10 -1126 67 870 582 1651 1359 2062 300 158 648 259 985 285 68 5 -365 9 -1122 10 l-1233 1 1 -1232z" />
<path d="M2705 5113 c340 -21 683 -111 980 -257 829 -408 1370 -1222 1428 -2151 2 -27 4 505 5 1183 l2 1232 -1232 -2 c-678 -1 -1210 -3 -1183 -5z" fillRule="evenodd" fill = "#0000"/>
<path d="M2285 4705 c-978 -128 -1748 -904 -1871 -1885 -16 -133 -18 -366 -4 -495 33 -293 131 -591 276 -841 90 -154 91 -139 -56 -593 -66 -205 -119 -375 -117 -378 3 -2 174 51 382 118 456 146 435 145 595 52 393 -228 887 -326 1337 -268 249 33 459 96 681 205 439 215 776 553 992 992 295 601 295 1295 0 1896 -324 660 -950 1107 -1680 1198 -138 17 -399 17 -535 -1z m-616 -1925 c85 -44 135 -125 135 -220 0 -97 -50 -176 -139 -223 -55 -29 -155 -29 -210 0 -89 47 -139 126 -139 223 0 73 17 115 68 168 74 80 191 101 285 52z m1000 0 c85 -44 135 -125 135 -220 0 -97 -50 -176 -139 -223 -55 -29 -155 -29 -210 0 -89 47 -139 126 -139 223 0 73 17 115 68 168 74 80 191 101 285 52z m1000 0 c43 -22 92 -72 117 -120 24 -47 24 -153 0 -200 -48 -93 -128 -144 -226 -144 -98 0 -178 51 -226 144 -24 47 -24 153 0 200 67 129 215 182 335 120z" fillRule="evenodd" />
<path d="M2 1345 c0 -616 1 -1115 3 -1110 2 6 79 244 170 530 l167 520 -50 95 c-152 287 -256 648 -281 976 -5 67 -8 -325 -9 -1011z"/>
<path d="M5110 2398 c0 -35 -7 -110 -14 -168 -74 -552 -312 -1045 -696 -1444 -447 -463 -1045 -738 -1695 -779 -27 -2 505 -4 1183 -5 l1232 -2 0 1230 c0 677 -2 1230 -5 1230 -3 0 -5 -28 -5 -62z"/> <path d="M975 243 c-159 -52 -393 -127 -520 -168 l-230 -74 1120 1 c690 0 1078 4 1011 9 -329 25 -703 134 -983 285 -46 24 -88 44 -95 43 -7 -1 -143 -44 -303 -96z"/>
<path d="M0 88 l0 -88 88 0 c87 1 87 1 48 15 -50 18 -103 71 -121 121 -14 39 -14 39 -15 -48z"/>
</g>
</svg>
