<svg xmlns="http://www.w3.org/2000/svg" width="36px" viewBox="0 0 937.5 937.5" height="36px" version="1.0"><defs><clipPath id="a"><path d="M 227.289062 434 L 710.289062 434 L 710.289062 813.808594 L 227.289062 813.808594 Z M 227.289062 434"/></clipPath><clipPath id="b"><path d="M 332 123.808594 L 606 123.808594 L 606 590 L 332 590 Z M 332 123.808594"/></clipPath></defs><g clip-path="url(#a)"><path fill="#02A981" d="M 693.125 434.308594 C 683.601562 434.308594 675.875 442.035156 675.875 451.558594 C 675.875 565.71875 583.035156 658.558594 468.875 658.558594 C 354.714844 658.558594 261.875 565.71875 261.875 451.558594 C 261.875 442.035156 254.148438 434.308594 244.625 434.308594 C 235.101562 434.308594 227.375 442.035156 227.375 451.558594 C 227.375 578.863281 326.527344 683.292969 451.625 692.195312 L 451.625 779.308594 L 365.375 779.308594 C 355.851562 779.308594 348.125 787.035156 348.125 796.558594 C 348.125 806.082031 355.851562 813.808594 365.375 813.808594 L 572.375 813.808594 C 581.898438 813.808594 589.625 806.082031 589.625 796.558594 C 589.625 787.035156 581.898438 779.308594 572.375 779.308594 L 486.125 779.308594 L 486.125 692.195312 C 611.222656 683.292969 710.375 578.898438 710.375 451.558594 C 710.375 442.035156 702.648438 434.308594 693.125 434.308594 Z M 693.125 434.308594"/></g><g clip-path="url(#b)"><path fill="#02A981" d="M 468.875 123.808594 C 401.046875 123.808594 342.535156 174.660156 332.601562 244.558594 L 332.773438 471.257812 C 342.535156 538.707031 401.046875 589.558594 468.875 589.558594 C 536.703125 589.558594 595.214844 538.707031 605.148438 468.808594 L 604.976562 242.109375 C 595.214844 174.660156 536.703125 123.808594 468.875 123.808594 Z M 468.875 123.808594"/></g></svg>