<svg xmlns="http://www.w3.org/2000/svg" width="36px" viewBox="0 0 937.5 937.5" height="36px" version="1.0"><defs><clipPath id="a"><path d="M 155.078125 146 L 782.078125 146 L 782.078125 774 L 155.078125 774 Z M 155.078125 146"/></clipPath></defs><path fill="#F80000" d="M 591.804688 257.621094 L 591.804688 240.785156 C 591.804688 177.574219 540.632812 126.277344 477.367188 126.277344 C 414.101562 126.277344 362.867188 177.574219 362.867188 240.785156 L 362.867188 470.710938 C 362.867188 475.632812 363.71875 480.375 364.328125 485.113281 L 591.804688 257.621094"/><path fill="#F80000" d="M 591.804688 470.710938 L 591.804688 415.160156 L 431.484375 575.554688 C 445.523438 581.753906 461.019531 585.277344 477.367188 585.277344 C 540.632812 585.277344 591.804688 533.980469 591.804688 470.710938"/><path fill="#F80000" d="M 659.207031 400.875 C 646.015625 400.875 635.320312 411.574219 635.320312 424.699219 L 635.320312 469.796875 C 635.320312 556.957031 564.457031 627.824219 477.367188 627.824219 C 449.167969 627.824219 422.671875 620.347656 399.699219 607.28125 L 365.054688 641.984375 C 391.007812 659.0625 421.089844 670.367188 453.484375 674.074219 L 453.484375 763.175781 L 340.261719 763.175781 C 327.070312 763.175781 316.375 773.8125 316.375 787.0625 C 316.375 800.191406 327.070312 810.886719 340.261719 810.886719 L 614.476562 810.886719 C 627.664062 810.886719 638.359375 800.191406 638.359375 787.0625 C 638.359375 773.8125 627.664062 763.175781 614.476562 763.175781 L 501.191406 763.175781 L 501.191406 674.136719 C 603.414062 662.222656 683.089844 575.1875 683.089844 469.796875 L 683.089844 424.699219 C 683.089844 411.511719 672.332031 400.875 659.207031 400.875"/><path fill="#F80000" d="M 328.164062 521.339844 C 322.574219 505.109375 319.414062 487.851562 319.414062 469.796875 L 319.414062 424.699219 C 319.414062 411.574219 308.71875 400.875 295.53125 400.875 C 282.339844 400.875 271.644531 411.574219 271.644531 424.699219 L 271.644531 469.796875 C 271.644531 501.28125 278.9375 531.0625 291.699219 557.804688 L 328.164062 521.339844"/><g clip-path="url(#a)"><path fill="#F80000" d="M 775.042969 153.140625 C 770.421875 148.460938 764.285156 146.152344 758.207031 146.152344 C 752.128906 146.152344 745.929688 148.460938 741.3125 153.140625 L 591.804688 302.65625 L 374.414062 520 L 342.628906 551.851562 L 162.070312 732.421875 C 152.769531 741.722656 152.769531 756.855469 162.070312 766.15625 C 166.75 770.835938 172.824219 773.144531 178.964844 773.144531 C 185.042969 773.144531 191.179688 770.835938 195.859375 766.15625 L 373.441406 588.558594 L 404.011719 557.925781 L 775.042969 186.875 C 784.402344 177.574219 784.402344 162.441406 775.042969 153.140625"/></g></svg>