
<svg version="1.0" xmlns="http://www.w3.org/2000/svg"
 width="32" height="32" fill="#0ed628">

<g 
fill="#0ed628   " stroke="none">
<path d="M0 2560 l0 -2560 2560 0 2560 0 0 2560 0 2560 -2560 0 -2560 0 0 -2560z m4435 1896 c221 -66 399 -251 449 -466 14 -57 16 -241 16 -1430 0 -1515 4 -1425 -68 -1570 -54 -110 -169 -224 -283 -278 -151 -72 -5 -67 -1989 -67 -1475 0 -1805 2 -1850 14 -225 55 -415 239 -470 456 -20 76 -20 112 -20 1449 0 1355 0 1372 21 1446 29 108 81 193 168 281 60 60 94 85 161 117 47 22 110 45 140 51 30 6 64 13 75 15 11 2 823 3 1805 2 1692 -1 1788 -2 1845 -20z" fill="#0ed628" fillRule="evenodd" />
<path d="M801 4050 c-51 -12 -112 -60 -138 -109 l-23 -45 2 -1347 3 -1347 30 -43 c18 -26 50 -53 80 -68 l49 -26 1756 0 1756 0 48 25 c28 15 61 43 80 68 l31 44 0 1358 0 1358 -30 43 c-18 26 -50 53 -80 68 l-49 26 -1741 2 c-957 0 -1755 -3 -1774 -7z m1847 -446 c56 -23 914 -883 947 -948 91 -182 -97 -369 -280 -279 -16 8 -146 130 -287 271 l-258 257 0 -621 0 -620 -25 -51 c-16 -32 -41 -61 -67 -79 -37 -26 -50 -29 -118 -29 -68 0 -81 3 -118 29 -26 18 -51 47 -67 79 l-25 51 0 620 0 620 -262 -261 c-172 -172 -276 -267 -300 -278 -166 -69 -333 82 -282 255 15 53 34 73 472 512 288 288 470 463 492 472 46 20 131 20 178 0z" fill="#0ed628" fillRule="evenodd" />
</g>
</svg>
