<svg xmlns="http://www.w3.org/2000/svg" width="36px" viewBox="0 0 937.5 937.5" height="36px" version="1.0"><defs><clipPath id="a"><path d="M 6.808594 123.8125 L 930.808594 123.8125 L 930.808594 813.8125 L 6.808594 813.8125 Z M 6.808594 123.8125"/></clipPath></defs><g clip-path="url(#a)"><path fill="#0ED628" d="M 886.746094 123.8125 L 53.121094 123.8125 C 51.605469 123.808594 50.089844 123.882812 48.582031 124.03125 C 47.070312 124.179688 45.574219 124.402344 44.085938 124.695312 C 42.597656 124.992188 41.128906 125.359375 39.675781 125.800781 C 38.222656 126.238281 36.796875 126.75 35.394531 127.328125 C 33.992188 127.910156 32.625 128.558594 31.285156 129.273438 C 29.945312 129.988281 28.648438 130.765625 27.386719 131.609375 C 26.125 132.449219 24.90625 133.351562 23.734375 134.316406 C 22.5625 135.277344 21.4375 136.296875 20.367188 137.367188 C 19.292969 138.441406 18.277344 139.5625 17.3125 140.734375 C 16.351562 141.910156 15.449219 143.125 14.605469 144.386719 C 13.765625 145.648438 12.984375 146.949219 12.269531 148.285156 C 11.554688 149.625 10.90625 150.996094 10.328125 152.394531 C 9.746094 153.796875 9.238281 155.226562 8.796875 156.675781 C 8.359375 158.128906 7.992188 159.597656 7.695312 161.085938 C 7.398438 162.574219 7.179688 164.074219 7.03125 165.582031 C 6.882812 167.09375 6.808594 168.605469 6.808594 170.125 L 6.808594 772.1875 C 6.808594 773.703125 6.882812 775.214844 7.03125 776.726562 C 7.179688 778.234375 7.398438 779.734375 7.695312 781.222656 C 7.992188 782.710938 8.359375 784.179688 8.796875 785.632812 C 9.238281 787.085938 9.746094 788.511719 10.328125 789.914062 C 10.90625 791.316406 11.554688 792.683594 12.269531 794.023438 C 12.984375 795.359375 13.765625 796.660156 14.605469 797.921875 C 15.449219 799.183594 16.351562 800.402344 17.3125 801.574219 C 18.277344 802.746094 19.292969 803.867188 20.367188 804.941406 C 21.4375 806.015625 22.5625 807.03125 23.734375 807.992188 C 24.90625 808.957031 26.125 809.859375 27.386719 810.703125 C 28.648438 811.542969 29.945312 812.324219 31.285156 813.039062 C 32.625 813.753906 33.992188 814.398438 35.394531 814.980469 C 36.796875 815.558594 38.222656 816.070312 39.675781 816.511719 C 41.128906 816.949219 42.597656 817.316406 44.085938 817.613281 C 45.574219 817.90625 47.070312 818.128906 48.582031 818.277344 C 50.089844 818.425781 51.605469 818.5 53.121094 818.5 L 284.683594 818.5 L 284.683594 957.4375 L 238.371094 957.4375 C 236.855469 957.4375 235.34375 957.511719 233.832031 957.660156 C 232.324219 957.808594 230.824219 958.03125 229.335938 958.324219 C 227.847656 958.621094 226.378906 958.988281 224.929688 959.429688 C 223.476562 959.871094 222.050781 960.378906 220.648438 960.960938 C 219.246094 961.542969 217.878906 962.1875 216.539062 962.90625 C 215.203125 963.621094 213.902344 964.398438 212.640625 965.242188 C 211.382812 966.082031 210.164062 966.984375 208.992188 967.949219 C 207.820312 968.910156 206.695312 969.929688 205.625 971 C 204.550781 972.074219 203.535156 973.195312 202.570312 974.367188 C 201.609375 975.539062 200.707031 976.757812 199.863281 978.019531 C 199.023438 979.28125 198.242188 980.578125 197.527344 981.917969 C 196.8125 983.253906 196.164062 984.625 195.585938 986.023438 C 195.003906 987.425781 194.492188 988.851562 194.054688 990.304688 C 193.613281 991.757812 193.246094 993.226562 192.949219 994.714844 C 192.652344 996.199219 192.429688 997.699219 192.28125 999.207031 C 192.132812 1000.71875 192.058594 1002.230469 192.058594 1003.75 C 192.058594 1005.265625 192.132812 1006.777344 192.28125 1008.289062 C 192.429688 1009.796875 192.652344 1011.296875 192.949219 1012.785156 C 193.246094 1014.269531 193.613281 1015.742188 194.054688 1017.191406 C 194.492188 1018.644531 195.003906 1020.070312 195.585938 1021.472656 C 196.164062 1022.871094 196.8125 1024.242188 197.527344 1025.578125 C 198.242188 1026.917969 199.023438 1028.21875 199.863281 1029.476562 C 200.707031 1030.738281 201.609375 1031.957031 202.570312 1033.128906 C 203.535156 1034.300781 204.550781 1035.421875 205.625 1036.496094 C 206.695312 1037.570312 207.820312 1038.585938 208.992188 1039.546875 C 210.164062 1040.511719 211.382812 1041.414062 212.640625 1042.253906 C 213.902344 1043.097656 215.203125 1043.878906 216.539062 1044.59375 C 217.878906 1045.308594 219.246094 1045.953125 220.648438 1046.535156 C 222.050781 1047.117188 223.476562 1047.625 224.929688 1048.066406 C 226.378906 1048.507812 227.847656 1048.875 229.335938 1049.171875 C 230.824219 1049.46875 232.324219 1049.6875 233.832031 1049.835938 C 235.34375 1049.988281 236.855469 1050.0625 238.371094 1050.0625 L 701.496094 1050.0625 C 703.015625 1050.0625 704.527344 1049.988281 706.035156 1049.835938 C 707.546875 1049.6875 709.042969 1049.46875 710.53125 1049.171875 C 712.019531 1048.875 713.488281 1048.507812 714.941406 1048.066406 C 716.390625 1047.625 717.820312 1047.117188 719.21875 1046.535156 C 720.621094 1045.953125 721.992188 1045.308594 723.328125 1044.59375 C 724.667969 1043.878906 725.964844 1043.097656 727.226562 1042.253906 C 728.488281 1041.414062 729.703125 1040.511719 730.878906 1039.546875 C 732.050781 1038.585938 733.171875 1037.570312 734.246094 1036.496094 C 735.316406 1035.421875 736.335938 1034.300781 737.296875 1033.128906 C 738.257812 1031.957031 739.160156 1030.738281 740.003906 1029.476562 C 740.847656 1028.21875 741.625 1026.917969 742.339844 1025.578125 C 743.054688 1024.242188 743.703125 1022.871094 744.285156 1021.472656 C 744.863281 1020.070312 745.375 1018.644531 745.816406 1017.191406 C 746.253906 1015.742188 746.625 1014.269531 746.917969 1012.785156 C 747.214844 1011.296875 747.4375 1009.796875 747.585938 1008.289062 C 747.734375 1006.777344 747.808594 1005.265625 747.808594 1003.75 C 747.808594 1002.230469 747.734375 1000.71875 747.585938 999.207031 C 747.4375 997.699219 747.214844 996.199219 746.917969 994.714844 C 746.625 993.226562 746.253906 991.757812 745.816406 990.304688 C 745.375 988.851562 744.863281 987.425781 744.285156 986.023438 C 743.703125 984.625 743.054688 983.253906 742.339844 981.917969 C 741.625 980.578125 740.847656 979.28125 740.003906 978.019531 C 739.160156 976.757812 738.257812 975.539062 737.296875 974.367188 C 736.335938 973.195312 735.316406 972.074219 734.246094 971 C 733.171875 969.929688 732.050781 968.910156 730.878906 967.949219 C 729.703125 966.984375 728.488281 966.082031 727.226562 965.242188 C 725.964844 964.398438 724.667969 963.621094 723.328125 962.90625 C 721.992188 962.1875 720.621094 961.542969 719.21875 960.960938 C 717.820312 960.378906 716.390625 959.871094 714.941406 959.429688 C 713.488281 958.988281 712.019531 958.621094 710.53125 958.324219 C 709.042969 958.03125 707.546875 957.808594 706.035156 957.660156 C 704.527344 957.511719 703.015625 957.4375 701.496094 957.4375 L 655.183594 957.4375 L 655.183594 818.5 L 886.746094 818.5 C 888.265625 818.5 889.777344 818.425781 891.289062 818.277344 C 892.796875 818.128906 894.296875 817.90625 895.785156 817.613281 C 897.273438 817.316406 898.742188 816.949219 900.195312 816.511719 C 901.644531 816.070312 903.074219 815.558594 904.472656 814.980469 C 905.875 814.398438 907.246094 813.753906 908.582031 813.039062 C 909.921875 812.324219 911.222656 811.542969 912.484375 810.703125 C 913.746094 809.859375 914.960938 808.957031 916.132812 807.992188 C 917.308594 807.03125 918.429688 806.015625 919.503906 804.941406 C 920.574219 803.867188 921.59375 802.746094 922.554688 801.574219 C 923.515625 800.402344 924.421875 799.183594 925.261719 797.921875 C 926.105469 796.660156 926.882812 795.359375 927.597656 794.023438 C 928.3125 792.683594 928.960938 791.316406 929.542969 789.914062 C 930.121094 788.511719 930.632812 787.085938 931.070312 785.632812 C 931.511719 784.179688 931.878906 782.710938 932.175781 781.222656 C 932.46875 779.734375 932.691406 778.234375 932.839844 776.726562 C 932.988281 775.214844 933.058594 773.703125 933.058594 772.1875 L 933.058594 170.125 C 933.058594 168.605469 932.988281 167.09375 932.839844 165.582031 C 932.691406 164.074219 932.46875 162.574219 932.171875 161.085938 C 931.878906 159.597656 931.511719 158.128906 931.070312 156.675781 C 930.632812 155.226562 930.121094 153.796875 929.539062 152.394531 C 928.960938 150.996094 928.3125 149.625 927.597656 148.285156 C 926.882812 146.949219 926.105469 145.648438 925.261719 144.386719 C 924.417969 143.125 923.515625 141.910156 922.554688 140.734375 C 921.59375 139.5625 920.574219 138.441406 919.503906 137.367188 C 918.429688 136.296875 917.308594 135.277344 916.132812 134.316406 C 914.960938 133.351562 913.746094 132.449219 912.484375 131.609375 C 911.222656 130.765625 909.921875 129.988281 908.582031 129.273438 C 907.246094 128.558594 905.875 127.910156 904.472656 127.328125 C 903.070312 126.75 901.644531 126.238281 900.195312 125.800781 C 898.742188 125.359375 897.273438 124.992188 895.785156 124.695312 C 894.296875 124.402344 892.796875 124.179688 891.289062 124.03125 C 889.777344 123.882812 888.265625 123.808594 886.746094 123.8125 Z M 562.558594 957.4375 L 377.308594 957.4375 L 377.308594 818.5 L 562.558594 818.5 Z M 840.433594 725.875 L 99.433594 725.875 L 99.433594 216.4375 L 840.433594 216.4375 Z M 344.566406 434.429688 C 343.492188 433.355469 342.476562 432.234375 341.511719 431.0625 C 340.550781 429.890625 339.648438 428.671875 338.804688 427.414062 C 337.960938 426.152344 337.183594 424.851562 336.46875 423.515625 C 335.753906 422.175781 335.105469 420.808594 334.523438 419.40625 C 333.945312 418.003906 333.433594 416.578125 332.992188 415.128906 C 332.550781 413.675781 332.183594 412.207031 331.886719 410.71875 C 331.59375 409.230469 331.371094 407.734375 331.222656 406.222656 C 331.074219 404.714844 331 403.203125 331 401.683594 C 331 400.167969 331.074219 398.65625 331.222656 397.144531 C 331.371094 395.636719 331.59375 394.136719 331.886719 392.648438 C 332.183594 391.164062 332.550781 389.691406 332.992188 388.242188 C 333.433594 386.789062 333.945312 385.363281 334.523438 383.960938 C 335.105469 382.5625 335.753906 381.191406 336.46875 379.855469 C 337.183594 378.515625 337.960938 377.21875 338.804688 375.957031 C 339.648438 374.695312 340.550781 373.480469 341.511719 372.308594 C 342.476562 371.132812 343.492188 370.011719 344.566406 368.941406 L 437.132812 276.375 C 438.207031 275.300781 439.332031 274.285156 440.507812 273.324219 C 441.683594 272.359375 442.902344 271.460938 444.167969 270.617188 C 445.429688 269.773438 446.734375 268.996094 448.074219 268.28125 C 449.414062 267.566406 450.785156 266.917969 452.1875 266.339844 C 453.59375 265.757812 455.019531 265.25 456.472656 264.808594 C 457.925781 264.367188 459.398438 264 460.890625 263.707031 C 462.378906 263.410156 463.878906 263.1875 465.390625 263.039062 C 466.902344 262.890625 468.417969 262.816406 469.9375 262.816406 C 471.453125 262.816406 472.96875 262.890625 474.480469 263.039062 C 475.992188 263.1875 477.492188 263.410156 478.984375 263.707031 C 480.472656 264 481.945312 264.367188 483.398438 264.808594 C 484.851562 265.25 486.28125 265.757812 487.683594 266.339844 C 489.085938 266.917969 490.457031 267.566406 491.800781 268.28125 C 493.140625 268.996094 494.441406 269.773438 495.703125 270.617188 C 496.96875 271.460938 498.1875 272.359375 499.363281 273.324219 C 500.539062 274.285156 501.664062 275.300781 502.738281 276.375 L 595.300781 368.941406 C 596.390625 370.011719 597.425781 371.132812 598.402344 372.300781 C 599.378906 373.472656 600.296875 374.691406 601.15625 375.953125 C 602.011719 377.210938 602.804688 378.511719 603.535156 379.851562 C 604.261719 381.195312 604.925781 382.566406 605.519531 383.972656 C 606.109375 385.375 606.632812 386.808594 607.085938 388.265625 C 607.539062 389.722656 607.917969 391.195312 608.222656 392.691406 C 608.527344 394.1875 608.761719 395.691406 608.917969 397.210938 C 609.074219 398.726562 609.15625 400.246094 609.164062 401.773438 C 609.171875 403.296875 609.101562 404.820312 608.957031 406.339844 C 608.816406 407.859375 608.597656 409.367188 608.304688 410.863281 C 608.011719 412.359375 607.648438 413.839844 607.207031 415.300781 C 606.769531 416.761719 606.261719 418.195312 605.679688 419.605469 C 605.097656 421.019531 604.449219 422.394531 603.734375 423.742188 C 603.015625 425.089844 602.234375 426.398438 601.390625 427.667969 C 600.542969 428.9375 599.636719 430.160156 598.667969 431.339844 C 597.703125 432.519531 596.679688 433.648438 595.601562 434.726562 C 594.523438 435.804688 593.394531 436.828125 592.214844 437.796875 C 591.035156 438.761719 589.808594 439.667969 588.539062 440.515625 C 587.269531 441.363281 585.964844 442.144531 584.617188 442.859375 C 583.269531 443.578125 581.890625 444.226562 580.480469 444.804688 C 579.070312 445.386719 577.632812 445.894531 576.171875 446.335938 C 574.710938 446.773438 573.234375 447.140625 571.734375 447.429688 C 570.238281 447.722656 568.730469 447.941406 567.210938 448.085938 C 565.695312 448.230469 564.171875 448.296875 562.648438 448.289062 C 561.121094 448.285156 559.601562 448.203125 558.082031 448.042969 C 556.566406 447.886719 555.058594 447.65625 553.566406 447.347656 C 552.070312 447.042969 550.59375 446.664062 549.136719 446.210938 C 547.679688 445.761719 546.25 445.238281 544.84375 444.644531 C 543.441406 444.050781 542.066406 443.390625 540.726562 442.660156 C 539.386719 441.933594 538.085938 441.136719 536.824219 440.28125 C 535.5625 439.421875 534.347656 438.503906 533.175781 437.527344 C 532.003906 436.550781 530.886719 435.515625 529.816406 434.429688 L 516.246094 420.863281 L 516.246094 633.25 C 516.246094 634.765625 516.171875 636.277344 516.023438 637.789062 C 515.875 639.296875 515.652344 640.796875 515.355469 642.285156 C 515.0625 643.769531 514.691406 645.242188 514.253906 646.691406 C 513.8125 648.144531 513.300781 649.570312 512.722656 650.972656 C 512.140625 652.371094 511.492188 653.742188 510.777344 655.078125 C 510.0625 656.417969 509.285156 657.71875 508.441406 658.976562 C 507.597656 660.238281 506.695312 661.457031 505.734375 662.628906 C 504.773438 663.800781 503.753906 664.921875 502.683594 665.996094 C 501.609375 667.070312 500.488281 668.085938 499.316406 669.046875 C 498.140625 670.011719 496.925781 670.914062 495.664062 671.753906 C 494.402344 672.597656 493.105469 673.378906 491.765625 674.09375 C 490.429688 674.808594 489.058594 675.453125 487.65625 676.035156 C 486.257812 676.617188 484.828125 677.125 483.378906 677.566406 C 481.925781 678.007812 480.457031 678.375 478.96875 678.671875 C 477.480469 678.96875 475.984375 679.1875 474.472656 679.335938 C 472.964844 679.488281 471.453125 679.5625 469.933594 679.5625 C 468.417969 679.5625 466.90625 679.488281 465.394531 679.335938 C 463.886719 679.1875 462.386719 678.96875 460.898438 678.671875 C 459.410156 678.375 457.941406 678.007812 456.492188 677.566406 C 455.039062 677.125 453.613281 676.617188 452.210938 676.035156 C 450.808594 675.453125 449.441406 674.808594 448.101562 674.09375 C 446.765625 673.378906 445.464844 672.597656 444.203125 671.753906 C 442.945312 670.914062 441.726562 670.011719 440.554688 669.046875 C 439.382812 668.085938 438.257812 667.070312 437.1875 665.996094 C 436.113281 664.921875 435.097656 663.800781 434.132812 662.628906 C 433.171875 661.457031 432.269531 660.238281 431.425781 658.976562 C 430.585938 657.71875 429.804688 656.417969 429.089844 655.078125 C 428.375 653.742188 427.726562 652.371094 427.148438 650.972656 C 426.566406 649.570312 426.054688 648.144531 425.617188 646.691406 C 425.175781 645.242188 424.808594 643.769531 424.511719 642.285156 C 424.214844 640.796875 423.992188 639.296875 423.84375 637.789062 C 423.695312 636.277344 423.621094 634.765625 423.621094 633.25 L 423.621094 420.863281 L 410.050781 434.433594 C 408.980469 435.503906 407.859375 436.523438 406.6875 437.484375 C 405.511719 438.445312 404.296875 439.347656 403.035156 440.191406 C 401.773438 441.035156 400.476562 441.8125 399.136719 442.527344 C 397.800781 443.242188 396.429688 443.890625 395.03125 444.472656 C 393.628906 445.050781 392.203125 445.5625 390.75 446.003906 C 389.300781 446.445312 387.832031 446.8125 386.34375 447.109375 C 384.855469 447.402344 383.355469 447.625 381.847656 447.773438 C 380.339844 447.921875 378.824219 447.996094 377.308594 447.996094 C 375.792969 447.996094 374.277344 447.921875 372.769531 447.773438 C 371.261719 447.625 369.761719 447.402344 368.273438 447.105469 C 366.785156 446.8125 365.316406 446.441406 363.867188 446.003906 C 362.414062 445.5625 360.988281 445.050781 359.585938 444.46875 C 358.1875 443.890625 356.816406 443.242188 355.480469 442.527344 C 354.140625 441.8125 352.84375 441.03125 351.582031 440.191406 C 350.320312 439.347656 349.105469 438.445312 347.933594 437.480469 C 346.761719 436.519531 345.640625 435.5 344.566406 434.429688 Z M 344.566406 434.429688"/></g></svg>